{"title":"Big.Brother.AU.S11E51.PDTV.x264-NoGRP.mp4","uid":11499544,"size":520317931,"categoryP":"video","categoryS":"tv_shows","magnet":"?xt=urn:btih:8fd3c67eb4a66d7c1ab210ac34abc5045a3e9459&amp;dn=Big.Brother.AU.S11E51.PDTV.x264-NoGRP.mp4&amp;tr=udp%3A%2F%2Ftracker.openbittorrent.com%3A80&amp;tr=udp%3A%2F%2Fopen.demonii.com%3A1337&amp;tr=udp%3A%2F%2Ftracker.coppersurfer.tk%3A6969&amp;tr=udp%3A%2F%2Fexodus.desync.com%3A6969","seeders":1,"leechers":0,"uploader":"whowhatwhen2","files":1,"time":1416323060,"description":"General\n\nFormat : MPEG-4\nFormat profile : Base Media / Version 2\nCodec ID : mp42\nFile size : 496 MiB\nDuration : 1h 6mn\nOverall bit rate mode : Variable\nOverall bit rate : 1 041 Kbps\n\n\nVideo\nID : 1\nFormat : AVC\nFormat/Info : Advanced Video Codec\nFormat profile : &lt;a class=&quot;__cf_email__&quot; href=&quot;/cdn-cgi/l/email-protection&quot; data-cfemail=&quot;eba3828c83aba7d8c5da&quot;&gt;[email&amp;#160;protected]&lt;/a&gt;&lt;script cf-hash='f9e31' type=&quot;text/javascript&quot;&gt;\n/* &lt;![CDATA[ */!function(){try{var t=&quot;currentScript&quot;in document?document.currentScript:function(){for(var t=document.getElementsByTagName(&quot;script&quot;),e=t.length;e--;)if(t[e].getAttribute(&quot;cf-hash&quot;))return t[e]}();if(t&amp;&amp;t.previousSibling){var e,r,n,i,c=t.previousSibling,a=c.getAttribute(&quot;data-cfemail&quot;);if(a){for(e=&quot;&quot;,r=parseInt(a.substr(0,2),16),n=2;a.length-n;n+=2)i=parseInt(a.substr(n,2),16)^r,e+=String.fromCharCode(i);e=document.createTextNode(e),c.parentNode.replaceChild(e,c)}}}catch(u){}}();/* ]]&gt; */&lt;/script&gt;\nFormat settings, CABAC : Yes\nFormat settings, ReFrames : 4 frames\nCodec ID : avc1\nCodec ID/Info : Advanced Video Coding\nDuration : 1h 6mn\nBit rate : 876 Kbps\nWidth : 720 pixels\nHeight : 400 pixels\nDisplay aspect ratio : 16:9\nFrame rate mode : Variable\nFrame rate : 25.000 fps\nMinimum frame rate : 15.765 fps\nBits/(Pixel*Frame) : 0.122\nStream size : 418 MiB (84%)\nWriting library : x264 core 130 r2273 b3065e6\n\n\nAudio\nID : 2\nFormat : AAC\nFormat/Info : Advanced Audio Codec\nFormat profile : LC\nCodec ID : 40\nDuration : 1h 6mn\nBit rate mode : Variable\nBit rate : 160 Kbps\nMaximum bit rate : 192 Kbps\nChannel(s) : 2 channels\nChannel positions : Front: L R\nSampling rate : 48.0 KHz\nCompression mode : Lossy\nStream size : 76.3 MiB (15%)\nLanguage : English","torrent":{"xt":"urn:btih:8fd3c67eb4a66d7c1ab210ac34abc5045a3e9459","amp;dn":"Big.Brother.AU.S11E51.PDTV.x264-NoGRP.mp4","amp;tr":["udp%3A%2F%2Ftracker.openbittorrent.com%3A80","udp%3A%2F%2Fopen.demonii.com%3A1337","udp%3A%2F%2Ftracker.coppersurfer.tk%3A6969","udp%3A%2F%2Fexodus.desync.com%3A6969"],"infoHash":"8fd3c67eb4a66d7c1ab210ac34abc5045a3e9459","infoHashBuffer":{"type":"Buffer","data":[143,211,198,126,180,166,109,124,26,178,16,172,52,171,197,4,90,62,148,89]},"announce":[],"urlList":[]}}